<?xml version="1.0" encoding="UTF-8"?> <!-- Generator: Adobe Illustrator 25.0.1, SVG Export Plug-In . SVG Version: 6.00 Build 0) --> <svg xmlns="http://www.w3.org/2000/svg" xmlns:xlink="http://www.w3.org/1999/xlink" version="1.1" id="Layer_1" x="0px" y="0px" viewBox="0 0 285.3 75.2" style="enable-background:new 0 0 285.3 75.2;" xml:space="preserve"> <style type="text/css"> .st0{fill:#2D2E83;} .st1{fill:#4ABFD8;} </style> <g> <path class="st0" d="M107.6,20.1c1.1,0.6,2,1.3,2.6,2.3s0.9,2.1,0.9,3.3c0,1.7-0.4,3.2-1.2,4.4c-0.8,1.2-1.9,2.1-3.2,2.8 c-1.4,0.6-3,1-4.7,1h-4.3l-1.3,7.4h-4.7l3.9-21.9h8.1C105.1,19.3,106.4,19.5,107.6,20.1z M102,29.9c1.3,0,2.3-0.3,3.1-1 s1.2-1.6,1.2-2.9c0-0.9-0.3-1.6-0.8-2.1c-0.6-0.5-1.3-0.7-2.3-0.7h-3.6l-1.2,6.7C98.4,29.9,102,29.9,102,29.9z"></path> <path class="st0" d="M125.9,41.2H122l-0.1-1.8c-1.3,1.3-3,2-4.9,2c-1.6,0-2.9-0.4-3.9-1.3c-1-0.9-1.6-2.3-1.6-4.2 c0-0.8,0.1-1.5,0.2-2.3l1.5-8.6h4.4l-1.5,8.6c-0.1,0.8-0.2,1.3-0.2,1.7c0,0.8,0.2,1.4,0.7,1.8c0.4,0.4,1.1,0.6,1.9,0.6 c1.1,0,2.1-0.4,2.8-1.3c0.7-0.8,1.2-2,1.5-3.5l1.4-7.9h4.4L125.9,41.2z"></path> <path class="st0" d="M146.2,28.3c0.6,1.1,0.8,2.3,0.8,3.6c0,1.8-0.4,3.4-1.2,4.8s-1.8,2.6-3.1,3.4c-1.3,0.8-2.7,1.3-4.3,1.3 c-2.2,0-3.8-0.8-4.8-2.3l-0.8,2.1H129l3.9-21.9h4.4l-1.3,7.4c1.2-1.2,2.7-1.8,4.5-1.8c1.3,0,2.4,0.3,3.4,0.9 C144.8,26.4,145.6,27.3,146.2,28.3z M141.9,35c0.4-0.8,0.6-1.8,0.6-2.7c0-1.2-0.3-2.1-0.9-2.8s-1.4-1-2.4-1c-0.9,0-1.7,0.3-2.5,0.8 s-1.3,1.2-1.7,2s-0.6,1.8-0.6,2.7c0,1.2,0.3,2.1,0.9,2.8c0.6,0.6,1.4,1,2.4,1c0.9,0,1.7-0.3,2.4-0.8C141,36.5,141.6,35.8,141.9,35z "></path> <path class="st0" d="M156.2,19.3l-3.9,21.9h-4.4l3.9-21.9C151.8,19.3,156.2,19.3,156.2,19.3z"></path> <path class="st0" d="M162.7,25.1l-2.8,16.1h-4.4l2.8-16.1H162.7z M163.8,20.7c0,0.8-0.3,1.4-0.8,1.9s-1.2,0.8-1.9,0.8 s-1.3-0.2-1.7-0.7s-0.7-1-0.7-1.7c0-0.8,0.3-1.4,0.8-1.9s1.2-0.8,1.9-0.8s1.3,0.2,1.7,0.7C163.6,19.5,163.8,20,163.8,20.7z"></path> <path class="st0" d="M171.1,41.4c-1.5,0-2.8-0.3-3.9-0.9c-1.1-0.6-2-1.5-2.6-2.6s-0.9-2.3-0.9-3.7c0-1.9,0.4-3.5,1.1-4.9 s1.8-2.5,3.2-3.3s3-1.1,4.9-1.1c1.4,0,2.6,0.3,3.7,0.8s1.9,1.3,2.5,2.2c0.6,0.9,0.9,2,0.9,3.2h-4.5c-0.1-0.8-0.4-1.4-0.9-1.9 s-1.2-0.7-2.1-0.7c-0.9,0-1.7,0.3-2.4,0.8s-1.2,1.2-1.6,2.1c-0.4,0.9-0.5,1.7-0.5,2.7c0,1.1,0.3,2,0.9,2.7c0.6,0.7,1.4,1,2.4,1 c0.8,0,1.6-0.2,2.1-0.7s1-1.1,1.3-2h4.6c-0.5,2.1-1.5,3.7-2.9,4.7S173.4,41.4,171.1,41.4z"></path> <path class="st0" d="M197.5,19.3l-1.6,8.8h8.5l1.6-8.8h4.7l-3.9,21.9h-4.7l1.6-9.1h-8.5l-1.6,9.1h-4.7l3.9-21.9 C192.8,19.3,197.5,19.3,197.5,19.3z"></path> <path class="st0" d="M226.5,28.1c0.6,1,0.9,2.2,0.9,3.5c0,1-0.1,1.9-0.3,2.5h-11.7v0.5c0,0.9,0.3,1.7,0.9,2.3c0.6,0.7,1.4,1,2.5,1 c0.9,0,1.7-0.2,2.2-0.6s1-1,1.3-1.7h4.4c-0.4,1.7-1.3,3.1-2.8,4.1c-1.4,1-3.2,1.5-5.2,1.5c-1.6,0-3-0.3-4.1-0.9 c-1.2-0.6-2-1.5-2.6-2.6s-0.9-2.3-0.9-3.7c0-1.8,0.4-3.4,1.1-4.8c0.7-1.4,1.8-2.5,3.2-3.3s3-1.2,4.8-1.2c1.5,0,2.8,0.3,3.9,0.9 C225,26.3,225.9,27.1,226.5,28.1z M222.9,30.9c0-0.9-0.3-1.6-0.8-2c-0.5-0.5-1.3-0.7-2.2-0.7c-1,0-1.8,0.3-2.5,0.9 s-1.2,1.3-1.4,2.2h6.9V30.9z"></path> <path class="st0" d="M244,41.2h-2.1c-0.9,0-1.6-0.2-2-0.6s-0.7-0.9-0.7-1.5l0,0c-0.7,0.8-1.4,1.3-2.2,1.7s-1.8,0.6-2.9,0.6 c-1.6,0-2.9-0.4-4-1.2s-1.6-1.9-1.6-3.3c0-1.9,0.7-3.3,2-4.2c1.3-0.9,3.2-1.4,5.6-1.4h3.9l0.1-0.6c0.1-0.3,0.1-0.5,0.1-0.8 c0-0.6-0.2-1-0.7-1.3s-1.1-0.5-1.9-0.5c-1,0-1.7,0.2-2.2,0.5s-0.8,0.8-1,1.5h-4.3c0.9-3.5,3.5-5.2,7.8-5.2c2,0,3.6,0.4,4.8,1.3 s1.8,2.1,1.8,3.8c0,0.4-0.1,1-0.2,1.6l-0.8,4.6c-0.1,0.3-0.1,0.5-0.1,0.7c0,0.5,0.3,0.7,0.8,0.7h0.6L244,41.2z M239.3,34.5v-0.3 H236c-1.1,0-1.9,0.2-2.4,0.5s-0.8,0.9-0.8,1.7c0,0.5,0.2,1,0.6,1.3c0.4,0.3,0.9,0.5,1.5,0.5c1.2,0,2.2-0.3,2.9-1 S239.1,35.6,239.3,34.5z"></path> <path class="st0" d="M254,19.3l-3.9,21.9h-4.4l3.9-21.9C249.6,19.3,254,19.3,254,19.3z"></path> <path class="st0" d="M253.7,28.8l0.7-3.7h2.7l0.8-4.5h4.4l-0.8,4.5h3.7l-0.7,3.7h-3.7l-1.3,7.1l-0.1,0.6c0,0.3,0.1,0.5,0.3,0.7 c0.2,0.2,0.5,0.2,0.9,0.2h2.4l-0.7,3.7H259c-1.3,0-2.4-0.3-3.1-0.9c-0.7-0.6-1.1-1.5-1.1-2.6c0-0.3,0.1-0.8,0.2-1.4l1.3-7.5h-2.6 V28.8z"></path> <path class="st0" d="M281.7,30.5c0,0.7-0.1,1.4-0.2,2.2l-1.5,8.6h-4.4l1.5-8.6c0.1-0.6,0.2-1.2,0.2-1.6c0-0.8-0.2-1.4-0.7-1.8 s-1.1-0.6-1.9-0.6c-1.2,0-2.1,0.4-2.9,1.2s-1.3,1.9-1.5,3.4l-1.4,8.1h-4.4l3.9-21.9h4.4l-1.3,7.5c1.3-1.2,2.9-1.9,4.6-1.9 c1.6,0,3,0.4,4.1,1.3C281.1,27.1,281.7,28.5,281.7,30.5z"></path> </g> <g> <path class="st1" d="M93.7,69.8c-0.7-1.4-1.1-3-1.1-4.9c0-2.4,0.5-4.6,1.5-6.6s2.4-3.5,4.3-4.7c1.9-1.1,4-1.7,6.5-1.7 c1.7,0,3.2,0.3,4.5,1s2.2,1.6,2.9,2.8s1,2.6,1,4.2h-4.6c-0.1-1.2-0.5-2.2-1.2-2.9c-0.8-0.7-1.8-1.1-3-1.1c-1.4,0-2.7,0.4-3.7,1.2 c-1.1,0.8-1.9,1.9-2.4,3.3s-0.8,2.8-0.8,4.4c0,1.6,0.4,2.9,1.3,3.9s2,1.5,3.4,1.5s2.5-0.4,3.4-1.1s1.6-1.7,2.1-3h4.7 c-0.7,2.5-1.9,4.5-3.7,5.9c-1.8,1.4-4,2.1-6.6,2.1c-1.9,0-3.6-0.4-5-1.2S94.5,71.2,93.7,69.8z"></path> <path class="st1" d="M115,70.8c-0.6-1.1-0.9-2.3-0.9-3.7c0-1.9,0.4-3.5,1.2-4.9s1.9-2.5,3.3-3.2c1.4-0.8,3.1-1.1,5-1.1 c1.5,0,2.8,0.3,3.9,0.9c1.1,0.6,2,1.5,2.6,2.6s0.9,2.3,0.9,3.7c0,1.9-0.4,3.5-1.2,4.9s-1.9,2.5-3.3,3.2c-1.4,0.8-3.1,1.1-5,1.1 c-1.5,0-2.8-0.3-3.9-0.9C116.5,72.7,115.6,71.9,115,70.8z M126,67.9c0.4-0.8,0.5-1.8,0.5-2.8c0-1.1-0.3-2-0.9-2.7s-1.4-1.1-2.4-1.1 c-0.9,0-1.8,0.3-2.5,0.8s-1.3,1.2-1.6,2c-0.3,0.8-0.6,1.8-0.6,2.7c0,1.1,0.3,2,0.9,2.7s1.4,1.1,2.4,1.1c0.9,0,1.8-0.3,2.5-0.8 C125.1,69.5,125.6,68.8,126,67.9z"></path> <path class="st1" d="M140.2,52.2l-3.9,21.9h-4.4l3.9-21.9C135.8,52.2,140.2,52.2,140.2,52.2z"></path> <path class="st1" d="M147.7,52.2l-3.9,21.9h-4.4l3.9-21.9C143.3,52.2,147.7,52.2,147.7,52.2z"></path> <path class="st1" d="M162.6,74.1h-2.1c-0.9,0-1.6-0.2-2-0.6s-0.7-0.9-0.7-1.5l0,0c-0.7,0.8-1.4,1.3-2.2,1.7 c-0.8,0.4-1.8,0.6-2.9,0.6c-1.6,0-2.9-0.4-4-1.2s-1.6-1.9-1.6-3.3c0-1.9,0.7-3.3,2-4.2c1.3-0.9,3.2-1.4,5.6-1.4h3.9l0.1-0.6 c0.1-0.3,0.1-0.5,0.1-0.8c0-0.6-0.2-1-0.7-1.3S157,61,156.2,61c-1,0-1.7,0.2-2.2,0.5s-0.8,0.8-1,1.5h-4.3c0.9-3.5,3.5-5.2,7.8-5.2 c2,0,3.6,0.4,4.8,1.3s1.8,2.1,1.8,3.8c0,0.4-0.1,1-0.2,1.6L162,69c-0.1,0.3-0.1,0.5-0.1,0.7c0,0.5,0.3,0.7,0.8,0.7h0.6L162.6,74.1z M157.9,67.4v-0.3h-3.3c-1.1,0-1.9,0.2-2.4,0.5s-0.8,0.9-0.8,1.7c0,0.5,0.2,1,0.6,1.3c0.4,0.3,0.9,0.5,1.5,0.5c1.2,0,2.2-0.3,2.9-1 S157.7,68.5,157.9,67.4z"></path> <path class="st1" d="M181.5,61.2c0.6,1.1,0.8,2.3,0.8,3.6c0,1.8-0.4,3.4-1.2,4.8s-1.8,2.6-3.1,3.4s-2.7,1.3-4.3,1.3 c-2.2,0-3.8-0.8-4.8-2.3l-0.8,2.1h-3.9l3.9-21.9h4.4l-1.3,7.4c1.2-1.2,2.7-1.8,4.5-1.8c1.3,0,2.4,0.3,3.4,0.9 C180.2,59.3,181,60.2,181.5,61.2z M177.3,67.9c0.4-0.8,0.6-1.8,0.6-2.7c0-1.2-0.3-2.1-0.9-2.8c-0.6-0.6-1.4-1-2.4-1 c-0.9,0-1.7,0.3-2.5,0.8c-0.7,0.5-1.3,1.2-1.7,2c-0.4,0.8-0.6,1.8-0.6,2.7c0,1.2,0.3,2.1,0.9,2.8c0.6,0.6,1.4,1,2.4,1 c0.9,0,1.7-0.3,2.4-0.8S176.9,68.7,177.3,67.9z"></path> <path class="st1" d="M185,70.8c-0.6-1.1-0.9-2.3-0.9-3.7c0-1.9,0.4-3.5,1.2-4.9s1.9-2.5,3.3-3.2c1.4-0.8,3.1-1.1,5-1.1 c1.5,0,2.8,0.3,3.9,0.9c1.1,0.6,2,1.5,2.6,2.6s0.9,2.3,0.9,3.7c0,1.9-0.4,3.5-1.2,4.9s-1.9,2.5-3.3,3.2c-1.4,0.8-3.1,1.1-5,1.1 c-1.5,0-2.8-0.3-3.9-0.9C186.5,72.7,185.6,71.9,185,70.8z M196,67.9c0.4-0.8,0.5-1.8,0.5-2.8c0-1.1-0.3-2-0.9-2.7s-1.4-1.1-2.4-1.1 c-0.9,0-1.8,0.3-2.5,0.8s-1.3,1.2-1.6,2c-0.4,0.8-0.6,1.8-0.6,2.7c0,1.1,0.3,2,0.9,2.7s1.4,1.1,2.4,1.1c0.9,0,1.8-0.3,2.5-0.8 C195.1,69.5,195.6,68.8,196,67.9z"></path> <path class="st1" d="M213.9,62h-1.6c-1.3,0-2.3,0.4-3,1.2s-1.3,1.9-1.5,3.2l-1.3,7.7h-4.4l2.8-16.1h4v2.2c0.6-0.7,1.3-1.3,2-1.6 c0.8-0.4,1.7-0.5,2.9-0.5h0.9L213.9,62z"></path> <path class="st1" d="M229,74.1h-2.1c-0.9,0-1.6-0.2-2-0.6s-0.7-0.9-0.7-1.5l0,0c-0.7,0.8-1.4,1.3-2.2,1.7c-0.8,0.4-1.8,0.6-2.9,0.6 c-1.6,0-2.9-0.4-4-1.2s-1.6-1.9-1.6-3.3c0-1.9,0.7-3.3,2-4.2c1.3-0.9,3.2-1.4,5.6-1.4h3.9l0.1-0.6c0.1-0.3,0.1-0.5,0.1-0.8 c0-0.6-0.2-1-0.7-1.3s-1.1-0.5-1.9-0.5c-1,0-1.7,0.2-2.2,0.5s-0.8,0.8-1,1.5h-4.3c0.9-3.5,3.5-5.2,7.8-5.2c2,0,3.6,0.4,4.8,1.3 s1.8,2.1,1.8,3.8c0,0.4-0.1,1-0.2,1.6l-0.8,4.6c-0.1,0.3-0.1,0.5-0.1,0.7c0,0.5,0.3,0.7,0.8,0.7h0.6L229,74.1z M224.3,67.4v-0.3 H221c-1.1,0-1.9,0.2-2.4,0.5s-0.8,0.9-0.8,1.7c0,0.5,0.2,1,0.6,1.3c0.4,0.3,0.9,0.5,1.5,0.5c1.2,0,2.2-0.3,2.9-1 S224.1,68.5,224.3,67.4z"></path> <path class="st1" d="M231.2,61.7l0.7-3.7h2.7l0.8-4.5h4.4L239,58h3.7l-0.7,3.7h-3.7l-1.3,7.1l-0.1,0.6c0,0.3,0.1,0.5,0.3,0.7 s0.5,0.2,0.9,0.2h2.4l-0.7,3.7h-3.3c-1.3,0-2.4-0.3-3.1-0.9c-0.7-0.6-1.1-1.5-1.1-2.6c0-0.3,0.1-0.8,0.2-1.4l1.3-7.5h-2.6V61.7z"></path> <path class="st1" d="M249.1,58l-2.8,16.1h-4.4l2.8-16.1H249.1z M250.2,53.6c0,0.8-0.3,1.4-0.8,1.9s-1.2,0.8-1.9,0.8 s-1.3-0.2-1.7-0.7s-0.7-1-0.7-1.7c0-0.8,0.3-1.4,0.8-1.9s1.2-0.8,1.9-0.8s1.3,0.2,1.7,0.7C250,52.4,250.2,52.9,250.2,53.6z"></path> <path class="st1" d="M251.1,70.8c-0.6-1.1-0.9-2.3-0.9-3.7c0-1.9,0.4-3.5,1.2-4.9s1.9-2.5,3.3-3.2c1.4-0.8,3.1-1.1,5-1.1 c1.5,0,2.8,0.3,3.9,0.9c1.1,0.6,2,1.5,2.6,2.6s0.9,2.3,0.9,3.7c0,1.9-0.4,3.5-1.2,4.9s-1.9,2.5-3.3,3.2c-1.4,0.8-3.1,1.1-5,1.1 c-1.5,0-2.8-0.3-3.9-0.9C252.6,72.7,251.7,71.9,251.1,70.8z M262,67.9c0.4-0.8,0.5-1.8,0.5-2.8c0-1.1-0.3-2-0.9-2.7 s-1.4-1.1-2.4-1.1c-0.9,0-1.8,0.3-2.5,0.8s-1.3,1.2-1.6,2c-0.4,0.8-0.6,1.8-0.6,2.7c0,1.1,0.3,2,0.9,2.7s1.4,1.1,2.4,1.1 c0.9,0,1.8-0.3,2.5-0.8C261.1,69.5,261.7,68.8,262,67.9z"></path> <path class="st1" d="M285.3,63.4c0,0.7-0.1,1.4-0.2,2.2l-1.5,8.6h-4.4l1.5-8.6c0.1-0.6,0.2-1.2,0.2-1.6c0-0.8-0.2-1.4-0.7-1.8 s-1.1-0.6-1.9-0.6c-1.2,0-2.2,0.4-2.9,1.2s-1.2,1.9-1.5,3.4l-1.4,8.1H268l2.8-16.1h3.9l0.1,1.8c1.3-1.3,2.9-2,4.8-2 c1.6,0,3,0.4,4.1,1.3C284.7,60,285.3,61.4,285.3,63.4z"></path> </g> <g> <path class="st0" d="M24.3,24.3C10.8,24.9,0,36.1,0,49.7c0,14,11.4,25.5,25.5,25.5h15.8v-17H25.8c-4.9,0-8.9-3.8-8.9-8.5 s4-8.5,8.9-8.5h15.4V25.8c0-4.9,3.8-8.8,8.5-8.8s8.5,4,8.5,8.8v15.4h17V25.5C75.2,11.4,63.7,0,49.7,0C36.1,0,24.9,10.8,24.3,24.3"></path> <path class="st0" d="M24.3,24.3C10.8,24.9,0,36.1,0,49.7c0,14,11.4,25.5,25.5,25.5h15.8v-17H25.8c-4.9,0-8.9-3.8-8.9-8.5 s4-8.5,8.9-8.5h15.4V25.8c0-4.9,3.8-8.8,8.5-8.8s8.5,4,8.5,8.8v15.4h17V25.5C75.2,11.4,63.7,0,49.7,0C36.1,0,24.9,10.8,24.3,24.3"></path> </g> <g> <polygon class="st1" points="73,73 75.2,70 75.2,58.2 58.2,58.2 58.2,75.2 70,75.2 "></polygon> <path class="st1" d="M75.2,70c0,2.9-2.3,5.2-5.2,5.2c-2.9,0-5.2-2.3-5.2-5.2c0-2.9,2.3-5.2,5.2-5.2C72.9,64.8,75.2,67.2,75.2,70"></path> </g> </svg> 